<?xml version="1.0" encoding="UTF-8" standalone="no"?>
<svg fill="currentColor" xmlns:dc="http://purl.org/dc/elements/1.1/" xmlns:cc="http://creativecommons.org/ns#" xmlns:rdf="http://www.w3.org/1999/02/22-rdf-syntax-ns#" xmlns:svg="http://www.w3.org/2000/svg" xmlns="http://www.w3.org/2000/svg" xmlns:sodipodi="http://sodipodi.sourceforge.net/DTD/sodipodi-0.dtd" xmlns:inkscape="http://www.inkscape.org/namespaces/inkscape" width="700pt" height="700pt" version="1.1" viewBox="0 0 700 700" id="svg845" sodipodi:docname="noun-calendar-4688041.svg" inkscape:version="1.0.1 (3bc2e813f5, 2020-09-07)">
   <metadata id="metadata851">
      <rdf:RDF>
         <cc:Work rdf:about="">
            <dc:format>image/svg+xml</dc:format>
            <dc:type rdf:resource="http://purl.org/dc/dcmitype/StillImage" />
         </cc:Work>
      </rdf:RDF>
   </metadata>
   <defs id="defs849" />
   <sodipodi:namedview pagecolor="#ffffff" bordercolor="#666666" borderopacity="1" objecttolerance="10" gridtolerance="10" guidetolerance="10" inkscape:pageopacity="0" inkscape:pageshadow="2" inkscape:window-width="3840" inkscape:window-height="2054" id="namedview847" showgrid="false" inkscape:zoom="0.69473241" inkscape:cx="968.19192" inkscape:cy="965.62212" inkscape:window-x="4597" inkscape:window-y="-11" inkscape:window-maximized="1" inkscape:current-layer="svg845" />
   <path d="m 626.30341,81.360058 h -81.538 V 36.930649 c 0,-11.344844 -9.14938,-20.49462 -20.42273,-20.49462 -11.34485,0 -20.49462,9.149384 -20.49462,20.49462 V 81.360058 H 194.74265 V 36.930649 c 0,-11.344844 -9.14938,-20.49462 -20.49462,-20.49462 -11.27335,0 -20.42273,9.149384 -20.42273,20.49462 V 81.360058 H 73.604811 c -40.1109,0 -72.82779036,32.646312 -72.82779036,72.903602 v 452.93372 c 0,40.18148 32.71689036,72.9036 72.82779036,72.9036 H 626.37138 c 40.18148,0 72.9036,-32.71689 72.9036,-72.9036 V 154.26366 c -0.0715,-40.2586 -32.78878,-72.903602 -72.97549,-72.903602 z m 31.98756,525.762822 c 0,17.64001 -14.34754,31.98755 -31.98756,31.98755 H 73.602197 c -17.568125,0 -31.910438,-14.34754 -31.910438,-31.98755 V 240.49399 H 658.28182 Z m 0,-407.61813 H 41.700909 v -45.23063 c 0,-17.64002 14.347541,-31.98756 31.910437,-31.98756 h 80.225714 v 34.69316 c 0,11.34484 9.14939,20.49462 20.42274,20.49462 11.34484,0 20.49462,-9.14938 20.49462,-20.49462 l -0.005,-34.69316 H 503.7764 v 34.69316 c 0,11.34484 9.14938,20.49462 20.49462,20.49462 11.27335,0 20.42273,-9.14938 20.42273,-20.49462 v -34.69316 h 81.61381 c 17.64002,0 31.98756,14.34754 31.98756,31.98756 z" id="path843" style="stroke-width:1.30705" />
</svg>