<?xml version="1.0" encoding="UTF-8" standalone="no"?>
<svg
   xmlns:dc="http://purl.org/dc/elements/1.1/"
   xmlns:cc="http://creativecommons.org/ns#"
   xmlns:rdf="http://www.w3.org/1999/02/22-rdf-syntax-ns#"
   xmlns:svg="http://www.w3.org/2000/svg"
   xmlns="http://www.w3.org/2000/svg"
   xmlns:sodipodi="http://sodipodi.sourceforge.net/DTD/sodipodi-0.dtd"
   xmlns:inkscape="http://www.inkscape.org/namespaces/inkscape"
   version="1.1"
   x="0px"
   y="0px"
   viewBox="0 0 93.443497 84.13607"
   enable-background="new 0 0 100 100"
   xml:space="preserve"
   id="svg853"
   sodipodi:docname="noun_bible_1189570.svg"
   width="93.443497"
   height="84.13607"
   inkscape:version="1.0.1 (3bc2e813f5, 2020-09-07)"><metadata
     id="metadata859"><rdf:RDF><cc:Work
         rdf:about=""><dc:format>image/svg+xml</dc:format><dc:type
           rdf:resource="http://purl.org/dc/dcmitype/StillImage" /></cc:Work></rdf:RDF></metadata><defs
     id="defs857" /><sodipodi:namedview
     pagecolor="#ffffff"
     bordercolor="#666666"
     borderopacity="1"
     objecttolerance="10"
     gridtolerance="10"
     guidetolerance="10"
     inkscape:pageopacity="0"
     inkscape:pageshadow="2"
     inkscape:window-width="1920"
     inkscape:window-height="1001"
     id="namedview855"
     showgrid="false"
     inkscape:zoom="4.5311403"
     inkscape:cx="12.572881"
     inkscape:cy="50.386955"
     inkscape:window-x="4816"
     inkscape:window-y="2151"
     inkscape:window-maximized="1"
     inkscape:current-layer="svg853" /><path
     fill="#000000"
     d="m 93.385763,72.936068 c 0,-0.6 0,-1.1 0,-1.7 0,-5.7 0,-11.5 0,-17.3 0,-11.5 0,-23.4 0,-34.6 0,-0.2 0,-0.5 0,-0.8 0.1,-1.4 0.2,-3.5 -1.5,-4.4 -0.7,-0.4 -1.5,-0.5 -2.1,-0.5 -0.3,0 -0.6,0 -0.9,0 -0.2,0 -0.4,0 -0.6,0 0,0 -0.1,0 -0.1,0 -0.1,0 -0.2,0 -0.3,0 v -4.7 c 0,-0.5 -0.2,-1.1 -0.6,-1.4 -0.4,-0.4 -1,-0.6 -1.5,-0.5 -1.1,0.1 -1.8,0.1 -2.9,0 -0.2,0 -0.3,0 -0.5,0 0,-1.7 -0.1,-3.5 -0.1,-5.2 0,-0.6 -0.3,-1.10000002 -0.7,-1.40000002 -0.4,-0.4 -1,-0.5 -1.5,-0.4 -5.9,0.8 -12.6,1.90000002 -18.3,4.10000002 -2.7,0.8 -4.5,1.3 -9.2,3.6 -0.1,0 -0.1,0.1 -0.2,0.1 -0.6,0.4 -1.3,0.7 -2,1 -1.2,0.6 -2.5,1.2 -3.6,2.2 -0.1,-0.1 -0.2,-0.1 -0.3,-0.2 -9.3,-5 -32.2,-10.20000002 -33.8,-10.20000002 -1,0 -1.5,0.60000002 -1.7,0.90000002 -0.2,0.3 -0.3,0.7 -0.3,1.1 v 4.4 c 0,0 -0.1,0 -0.1,0 -0.5,0 -1.0999999,0 -1.7999999,0 -0.4,0 -0.8,0 -1.1,0 h -0.5 c -1.1,0 -1.9,0.9 -1.9,2 v 4.6 c -0.2,0 -0.3,0 -0.5,0 -0.9,0 -2.4,0.2 -3.1,0.3 -0.89999996,0.2 -1.49999996,1 -1.49999996,1.9 0,9.2 0,18.8 0,28.1 0,10.2 0,20.8 0,30.9 0,0.2 0,0.5 0,0.8 -0.3,1.3 -0.4,3.3 0.99999996,4.3 0.7,0.7 1.7,1 2.9,1 0.8,0 1.6,-0.1 2.2,-0.2 0.3,0 0.6,-0.1 0.9,-0.1 3.5999999,-0.3 7.1999999,-0.5 10.7999999,-0.5 7.9,0 15.3,0.8 21.5,2.4 0.6,0.1 1.2,0.4 1.8,0.6 1,0.4 2.1,0.8 3.2,0.9 0.5,0.1 1,0.1 1.5,0.1 2.1,0 3.8,-0.5 5.4,-1 0.6,-0.2 1.2,-0.4 1.8,-0.5 6.2,-1.6 13.6,-2.4 21.3,-2.4 3.6,0 7.2,0.2 10.8,0.5 0.3,0 0.5,0.1 0.8,0.1 0.8,0.1 1.7,0.2 2.6,0.2 1,0 1.8,-0.1 2.6,-0.4 0.6,-0.2 1,-0.6 1.2,-1.2 1.1,-2.3 1,-4.4 0.9,-6.5 z m -45.9,-59.9 c 1.5,-1.7 4,-2.3 5.9,-3.5 0.6,5.5 0.1,12 0.2,17.9 1.6,-0.5 2.7,-3.6 4.7,-4.5 1.2,1.7 2.5,3.3 4,4.7 0,-7.2 0,-14.5 0,-21.7 5.3,-2 11.5,-3.1 17.9,-4 0.6,20.2 0.1,41.5 0.2,62.1 -13.1,1.1 -24,5.7 -33,10.1 0.1,-20.4 0.1,-40.8 0.1,-61.1 z m -34.9,-10.4 c -0.2,-0.4 23.7,4.9 33,9.9 0,20.5 0,40.9 0,61.4 -0.5,0.7 -1.2,-0.3 -1.4,-0.5 -8.8,-4.3 -19.3,-8.4 -31.6,-9.4 0,-20.5 0,-41 0,-61.4 z m -5.3999999,6.3 c 1.1,0 2.6,0 3.4999999,0 -0.1,1.2 -0.1,39 0.1,56.6 12.5,1.3 22.6,4.1 32.1,9.2 1.4,0.8 2.8,1.9 3.8,1.9 1.5,0 6.4,-3.1 8,-3.8 8.3,-3.7 16.7,-6.5 27.8,-7.1 0.1,-18.8 -0.4,-38.2 0.2,-56.8 1.1,0.1 2,0.1 3.3,0 0,20.5 0,40.9 0,61.4 -12.4,-0.3 -21.2,1.3 -30.7,4.2 -2.9,0.9 -5.9,3 -8.5,3.1 -1.4,0 -2.8,-0.7 -4.5,-1.4 -10.2,-4 -20.8,-6.2 -35.1999999,-5.9 0.1,-20.5 0.1,-40.9 0.1,-61.4 z m 84.1999999,62.3 c 0,2.5 0.4,5 -0.5,7.3 -1.7,0.5 -3.5,0.2 -5.2,0 -11,-1.1 -23,-0.6 -32.8,1.9 -2.6,0.7 -4.7,1.8 -8,1.4 -1.5,-0.2 -3.1,-1 -4.7,-1.4 -9.5,-2.4 -21.6,-3 -32.9999999,-1.9 -1.5,0.1 -3.8,0.8 -4.7,-0.2 -0.9,-0.4 -0.5,-2.4 -0.5,-3.5 -0.1,-19.1 0.1,-39.6 0,-59 0.8,-0.2 2.9,-0.4 3.3,-0.2 0,18.9 0,37.8 0,56.6 15.1999999,-0.6 25.8999999,1.8 36.7999999,6.1 1.5,0.6 3.5,1.6 4.5,1.7 1,0 2.9,-1 4.5,-1.7 10.4,-4.1 21.4,-6.7 36.6,-6.1 0.6,-18.5 0.1,-37.7 0.2,-56.6 0.7,0.2 2.4,-0.3 3.1,0.2 0.9,0.4 0.5,2.4 0.5,3.5 0,16.8 -0.1,34.8 -0.1,51.9 z"
     id="path847" /></svg>
